<svg xmlns="http://www.w3.org/2000/svg" viewBox="0 0 1024 1024">
  <defs>
    <linearGradient id="g" x1="0" y1="0" x2="1" y2="1">
      <stop offset="0" stop-color="#0B5C4A"></stop>
      <stop offset="1" stop-color="#12A284"></stop>
    </linearGradient>
  </defs>
  <rect width="1024" height="1024" rx="220" fill="url(#g)"></rect>
  <g fill="#fff">
    <path d="M512 240c-124 0-224 100-224 224s100 224 224 224 224-100 224-224S636 240 512 240zm0 96c71 0 128 57 128 128s-57 128-128 128-128-57-128-128 57-128 128-128z"></path>
    <path d="M256 736c58 80 155 132 256 132s198-52 256-132c13-18-1-44-23-44H279c-22 0-36 26-23 44z"></path>
  </g>
</svg>
